<svg width="1280" height="720" xmlns="http://www.w3.org/2000/svg" xmlns:xlink="http://www.w3.org/1999/xlink" overflow="hidden"><g><rect x="0" y="0" width="1280" height="720" fill="#FFFFFF"/><path d="M358 360C358 320.236 390.236 288 430 288 469.764 288 502 320.236 502 360 502 399.764 469.764 432 430 432 390.236 432 358 399.764 358 360Z" stroke="#042433" stroke-width="2" stroke-miterlimit="8" fill="#C2F1C8" fill-rule="evenodd"/><text font-family="Aptos,Aptos_MSFontService,sans-serif" font-weight="400" font-size="58.6667" transform="translate(411.964 379)">B</text><path d="M147 360C147 320.236 179.235 288 219 288 258.764 288 291 320.236 291 360 291 399.764 258.764 432 219 432 179.235 432 147 399.764 147 360Z" stroke="#042433" stroke-width="2" stroke-miterlimit="8" fill="#C2F1C8" fill-rule="evenodd"/><text font-family="Aptos,Aptos_MSFontService,sans-serif" font-weight="400" font-size="58.6667" transform="translate(202.177 379)">A</text><path d="M568 360C568 320.236 600.235 288 640 288 679.764 288 712 320.236 712 360 712 399.764 679.764 432 640 432 600.235 432 568 399.764 568 360Z" stroke="#042433" stroke-width="2" stroke-miterlimit="8" fill="#F2CFEE" fill-rule="evenodd"/><text font-family="Aptos,Aptos_MSFontService,sans-serif" font-weight="400" font-size="58.6667" transform="translate(619.667 379)">C</text><path d="M778 360C778 320.236 810.235 288 850 288 889.764 288 922 320.236 922 360 922 399.764 889.764 432 850 432 810.235 432 778 399.764 778 360Z" stroke="#042433" stroke-width="2" stroke-miterlimit="8" fill="#F2CFEE" fill-rule="evenodd"/><text font-family="Aptos,Aptos_MSFontService,sans-serif" font-weight="400" font-size="58.6667" transform="translate(830.203 379)">D</text><path d="M989 360C989 320.236 1021.24 288 1061 288 1100.76 288 1133 320.236 1133 360 1133 399.764 1100.76 432 1061 432 1021.24 432 989 399.764 989 360Z" stroke="#042433" stroke-width="2" stroke-miterlimit="8" fill="#F2CFEE" fill-rule="evenodd"/><text font-family="Aptos,Aptos_MSFontService,sans-serif" font-weight="400" font-size="58.6667" transform="translate(1044.24 379)">E</text><path d="M217.846 288.703 217.57 286.456 217.657 286.818 216.854 284.588 216.987 284.871 215.692 282.676 215.837 282.885 214.085 280.743 214.225 280.894 212.052 278.823 212.181 278.934 209.62 276.951 209.792 277.067 203.651 273.435 203.851 273.535 196.586 270.465 196.767 270.53 188.658 268.163 188.837 268.204 180.165 266.681 180.353 266.703 171.4 266.164 171.602 266.164 167.108 266.439 167.301 266.416 162.842 267.219 163.019 267.177 158.63 268.472 158.789 268.416 154.506 270.168 154.65 270.101 150.507 272.275 150.637 272.199 146.67 274.76 146.842 274.633 139.576 280.773 139.773 280.576 133.633 287.842 133.76 287.67 131.199 291.637 131.275 291.507 129.101 295.65 129.168 295.506 127.416 299.789 127.472 299.63 126.177 304.019 126.219 303.842 125.416 308.301 125.439 308.108 125.164 312.602 125.164 312.4 125.703 321.353 125.681 321.165 127.204 329.837 127.163 329.658 129.53 337.767 129.465 337.586 132.535 344.851 132.435 344.651 136.067 350.792 135.951 350.62 137.934 353.181 137.655 352.898 141.028 355.584 138.952 358.192 135.421 355.38 133.252 352.579 129.509 346.252 126.357 338.794 123.937 330.504 122.381 321.648 121.831 312.499 122.118 307.807 122.954 303.162 124.299 298.606 126.113 294.171 128.358 289.892 131.017 285.772 137.318 278.318 144.772 272.018 148.892 269.358 153.171 267.113 157.606 265.299 162.162 263.954 166.807 263.118 171.499 262.831 180.648 263.381 189.504 264.937 197.794 267.357 205.252 270.509 211.579 274.252 214.289 276.351 216.6 278.552 218.498 280.872 219.937 283.311 220.856 285.865 221.154 288.297ZM140.655 351.66 147.5 360.5 136.321 360.672Z"/><path d="M2.63972e-06-1.66667 57.9532-1.66657 57.9532 1.66676-2.63972e-06 1.66667ZM56.2865-4.99991 66.2865 0.000104987 56.2865 5.00009Z" transform="matrix(-1 0 0 1 357.787 360.5)"/><path d="M712.5 358.833 770.453 358.833 770.453 362.167 712.5 362.167ZM768.786 355.5 778.786 360.5 768.786 365.5Z"/><path d="M922.5 358.833 980.453 358.833 980.453 362.167 922.5 362.167ZM978.786 355.5 988.786 360.5 978.786 365.5Z"/><path d="M0.432125-1.60967 3.01013-0.917593 5.66949 1.17981 8.06548 4.27699 10.308 8.29544 12.4355 13.1865 14.4534 18.8928 16.3541 25.349 18.1249 32.4852 19.7508 40.2288 21.2157 48.5057 22.5027 57.241 23.5962 66.3701 25.1258 85.4419 25.6673 105.142 25.1559 124.839 23.7117 143.907 22.6793 153.033 21.464 161.766 20.081 170.041 18.5459 177.781 16.8742 184.915 15.08 191.368 13.1755 197.07 11.1257 202.06 8.7028 205.477 5.98349 203.549 8.29659 200.287 8.11461 200.617 10.0708 195.855 10.0316 195.961 11.9048 190.352 11.8799 190.434 13.6535 184.055 13.6366 184.121 15.294 177.049 15.2818 177.105 16.8064 169.417 16.7974 169.466 18.1725 161.239 18.1656 161.284 19.3748 152.595 19.3694 152.637 20.396 143.563 20.3902 143.625 21.829 124.629 21.8248 124.712 22.3339 105.1 22.334 105.189 21.7949 85.5773 21.7996 85.6647 20.2762 66.6691 20.2827 66.7341 19.1957 57.6599 19.2017 57.7046 17.9214 49.0154 17.9291 49.0629 16.4731 40.8358 16.4832 40.8878 14.8689 33.1997 14.8824 33.2586 13.1275 26.1866 13.1463 26.2559 11.2684 19.877 11.2959 19.9619 9.31247 14.3531 9.35545 14.4623 7.28416 9.70054 7.35712 9.84792 5.21552 6.0103 5.35265 6.21792 3.15831 3.38142 3.44446 3.67025 1.21496 1.91188 1.81494 2.21291-0.432125 1.60967ZM12.0089 206.965 1.33333 210.286 5.08135 199.753Z" transform="matrix(-1.83697e-16 -1 -1 1.83697e-16 1061.79 288.833)"/></g></svg>